<?xml version="1.0" encoding="UTF-8"?>
<!DOCTYPE svg PUBLIC "-//W3C//DTD SVG 1.1//EN" "http://www.w3.org/Graphics/SVG/1.1/DTD/svg11.dtd">
<!-- Creator: CorelDRAW X7 -->
<svg xmlns="http://www.w3.org/2000/svg" xml:space="preserve" width="2213px" height="945px" version="1.1" shape-rendering="geometricPrecision" text-rendering="geometricPrecision" image-rendering="optimizeQuality" fill-rule="evenodd" clip-rule="evenodd"
viewBox="0 0 2213 945"
 xmlns:xlink="http://www.w3.org/1999/xlink">
 <g id="Layer_x0020_1">
  <metadata id="CorelCorpID_0Corel-Layer"/>
  <path fill="#3267B8" fill-rule="nonzero" d="M261 266c0,9 2,17 5,24 4,7 10,13 17,17 7,4 17,6 28,6 11,0 19,-2 27,-6 7,-4 13,-10 16,-17 4,-7 6,-15 6,-24 0,-9 -2,-16 -6,-24 -3,-7 -9,-12 -16,-17 -8,-4 -16,-6 -27,-6 -11,0 -21,2 -28,6 -7,5 -13,10 -17,17 -3,8 -5,15 -5,24z"/>
  <path fill="#3267B8" fill-rule="nonzero" d="M749 452c0,9 2,17 5,24 4,7 10,13 17,17 7,4 17,6 28,6 11,0 20,-2 27,-6 7,-4 13,-10 16,-17 4,-7 6,-15 6,-24 0,-8 -2,-16 -6,-24 -3,-7 -9,-12 -16,-17 -7,-4 -16,-6 -27,-6 -11,0 -21,2 -28,6 -7,5 -13,10 -17,17 -3,8 -5,16 -5,24z"/>
  <path fill="#17478F" fill-rule="nonzero" d="M268 627l85 0 0 -269 -85 0 0 269zm163 0l83 0 0 -138 68 0c21,0 40,-3 58,-9 18,-6 33,-15 46,-26 13,-11 24,-25 31,-41 7,-17 11,-35 11,-56 0,-23 -4,-43 -11,-60 -8,-16 -18,-30 -31,-40 -13,-11 -28,-19 -46,-23 -17,-5 -35,-8 -55,-8l-154 0 0 401zm83 -208l0 -124 60 0c9,0 18,0 26,2 8,2 15,5 22,9 6,5 11,11 15,19 4,9 6,20 6,33 0,12 -2,22 -6,30 -4,7 -9,14 -16,18 -6,5 -14,8 -22,10 -8,2 -16,3 -24,3l-61 0zm384 208l294 0 0 -70 -211 0 0 -331 -83 0 0 401zm326 0l82 0 0 -283 -120 0 0 66 38 0 0 217zm125 0l82 0 0 -208c9,-5 18,-8 28,-11 9,-2 20,-4 31,-4 10,0 18,2 25,5 6,3 11,8 14,15 3,8 5,17 5,29l0 174 82 0 0 -180c0,-16 -2,-30 -6,-44 -4,-14 -10,-25 -19,-36 -8,-10 -20,-18 -34,-24 -15,-5 -32,-8 -53,-8 -12,0 -24,1 -34,3 -10,2 -20,4 -29,8 -9,3 -18,7 -26,11l-17 -28 -69 31 20 53 0 214zm308 0l82 0 0 -112 13 0c4,0 7,1 10,2 4,1 6,3 9,5 3,3 6,5 10,9l104 107 59 -51 -109 -112 90 -96 -62 -49 -91 106c-3,3 -7,6 -10,7 -4,2 -7,2 -12,2l-11 0 0 -219 -82 0 0 401z"/>
  <path fill="#3267B8" fill-rule="nonzero" d="M1210 266c0,9 2,17 6,24 4,7 9,13 17,17 7,4 16,6 27,6 11,0 20,-2 27,-6 8,-4 13,-10 17,-17 4,-7 6,-15 6,-24 0,-9 -2,-16 -6,-24 -4,-7 -9,-12 -17,-17 -7,-4 -16,-6 -27,-6 -11,0 -20,2 -27,6 -8,5 -13,10 -17,17 -4,8 -6,15 -6,24z"/>
  <path fill="#3267B8" fill-rule="nonzero" d="M896 747l12 0 0 -70 -12 0 0 70zm29 0l12 0 0 -30c0,-3 1,-5 2,-7 1,-2 2,-3 4,-4 2,-1 4,-2 6,-2 4,0 7,1 8,3 2,3 3,6 3,10l0 30 12 0 0 -34c0,-4 0,-7 -2,-10 -1,-3 -3,-6 -6,-7 -3,-2 -6,-3 -10,-3 -3,0 -5,1 -7,1 -2,1 -4,2 -6,4 -1,1 -3,3 -4,4l0 -8 -12 0 0 53zm80 0c2,0 4,0 6,0 1,-1 3,-1 4,-2l0 -10c-1,1 -2,1 -3,1 -1,1 -3,1 -4,1 -2,0 -4,-1 -5,-2 -1,-1 -2,-2 -2,-5l0 -25 15 0 0 -11 -15 0 0 -14 -12 0 0 14 -6 0 0 11 6 0 0 27c0,4 1,7 2,9 2,2 3,4 6,5 2,1 5,1 8,1zm45 1c4,0 6,-1 9,-1 3,-1 5,-2 7,-4 2,-1 4,-3 6,-5l-7 -6c-2,1 -3,2 -5,3 -1,1 -3,2 -4,2 -2,1 -4,1 -6,1 -2,0 -4,-1 -7,-2 -2,-1 -3,-2 -5,-4 -1,-2 -2,-4 -3,-7l39 0c0,-1 0,-1 0,-1 0,-1 0,-1 0,-2 0,0 0,0 0,-1 0,-3 0,-6 -1,-8 -1,-3 -2,-6 -3,-8 -1,-2 -3,-4 -5,-6 -2,-2 -4,-3 -7,-4 -3,-1 -6,-2 -9,-2 -4,0 -7,1 -10,2 -3,2 -6,4 -8,6 -3,3 -5,6 -6,9 -1,3 -2,7 -2,10 0,5 1,8 2,12 2,3 4,6 6,8 3,3 5,4 9,6 3,1 6,2 10,2zm-15 -31c1,-3 1,-5 3,-7 1,-2 2,-4 4,-5 2,-1 4,-2 7,-2 3,0 5,1 7,2 2,1 3,3 4,5 1,2 2,4 2,7l-27 0zm51 30l12 0 0 -20c0,-5 1,-9 3,-12 1,-3 3,-5 6,-7 3,-1 6,-2 9,-2l1 0 0 -13c-3,0 -6,1 -8,2 -3,1 -5,2 -6,4 -2,2 -4,4 -5,7l0 -12 -12 0 0 53zm41 0l12 0 0 -30c0,-3 1,-5 2,-7 1,-2 2,-3 4,-4 2,-1 4,-2 6,-2 4,0 7,1 9,3 1,3 2,6 2,10l0 30 12 0 0 -34c0,-4 0,-7 -2,-10 -1,-3 -3,-6 -6,-7 -3,-2 -6,-3 -10,-3 -3,0 -5,1 -7,1 -2,1 -4,2 -6,4 -1,1 -3,3 -4,4l0 -8 -12 0 0 53zm86 1c3,0 6,-1 9,-1 2,-1 5,-2 7,-4 2,-1 4,-3 6,-5l-8 -6c-1,1 -2,2 -4,3 -1,1 -3,2 -4,2 -2,1 -4,1 -6,1 -2,0 -5,-1 -7,-2 -2,-1 -4,-2 -5,-4 -1,-2 -2,-4 -3,-7l39 0c0,-1 0,-1 0,-1 0,-1 0,-1 0,-2 0,0 0,0 0,-1 0,-3 0,-6 -1,-8 -1,-3 -2,-6 -3,-8 -1,-2 -3,-4 -5,-6 -2,-2 -5,-3 -7,-4 -3,-1 -6,-2 -9,-2 -4,0 -7,1 -11,2 -3,2 -5,4 -8,6 -2,3 -4,6 -5,9 -1,3 -2,7 -2,10 0,5 1,8 2,12 2,3 3,6 6,8 2,3 5,4 8,6 4,1 7,2 11,2zm-15 -31c0,-3 1,-5 2,-7 2,-2 3,-4 5,-5 2,-1 4,-2 7,-2 2,0 5,1 6,2 2,1 4,3 5,5 1,2 2,4 2,7l-27 0zm69 30c2,0 4,0 6,0 1,-1 3,-1 4,-2l0 -10c-1,1 -2,1 -3,1 -1,1 -3,1 -4,1 -2,0 -4,-1 -5,-2 -1,-1 -1,-2 -1,-5l0 -25 14 0 0 -11 -14 0 0 -14 -12 0 0 14 -7 0 0 11 7 0 0 27c0,4 0,7 1,9 2,2 4,4 6,5 2,1 5,1 8,1zm53 0l12 0 0 -42 22 0 0 42 12 0 0 -53 -46 0 0 53zm62 15l12 0 0 -24c1,2 2,4 4,5 2,1 4,2 6,3 2,1 5,2 7,2 3,0 5,-1 8,-2 2,0 4,-1 6,-3 3,-1 4,-3 6,-5 1,-3 3,-5 4,-8 0,-3 1,-6 1,-9 0,-4 -1,-7 -1,-10 -1,-3 -3,-5 -4,-8 -2,-2 -4,-4 -6,-5 -2,-2 -4,-3 -6,-4 -3,0 -5,-1 -8,-1 -2,0 -5,1 -7,2 -2,0 -4,2 -6,3 -2,2 -3,3 -4,5l0 -9 -12 0 0 68zm27 -25c-2,0 -4,0 -6,-1 -2,-1 -4,-2 -5,-3 -2,-2 -3,-4 -3,-6 -1,-2 -2,-4 -2,-6 0,-3 1,-5 2,-7 0,-3 1,-4 3,-6 1,-1 3,-2 5,-3 2,-1 4,-1 6,-1 2,0 4,0 5,1 2,1 4,2 5,3 2,2 3,3 3,5 1,3 2,5 2,7 0,3 -1,5 -2,7 0,2 -1,4 -3,6 -1,1 -3,2 -5,3 -1,1 -3,1 -5,1zm64 11c4,0 8,-1 11,-2 4,-2 7,-4 9,-6 3,-3 5,-6 6,-9 2,-3 2,-7 2,-10 0,-4 0,-8 -2,-11 -1,-3 -3,-6 -6,-9 -2,-2 -5,-4 -8,-6 -4,-1 -8,-2 -12,-2 -4,0 -7,1 -11,2 -3,2 -6,4 -9,6 -2,3 -4,6 -6,9 -1,3 -2,7 -2,11 0,3 1,7 2,10 2,3 4,6 6,9 3,2 6,4 9,6 3,1 7,2 11,2zm0 -11c-2,0 -4,0 -6,-1 -2,-1 -4,-2 -5,-4 -2,-1 -3,-3 -3,-5 -1,-2 -2,-4 -2,-6 0,-3 1,-5 1,-7 1,-2 2,-4 4,-5 1,-2 3,-3 5,-4 2,-1 4,-1 6,-1 3,0 5,0 7,1 2,1 3,2 5,4 1,1 2,3 3,5 1,2 1,4 1,7 0,2 0,4 -1,6 -1,2 -2,4 -3,5 -1,2 -3,3 -5,4 -2,1 -4,1 -7,1zm41 10l27 0c4,0 7,-1 10,-2 3,-1 5,-3 7,-5 1,-2 2,-5 2,-8 0,-2 0,-4 -1,-6 -1,-2 -2,-3 -4,-4 -2,-1 -4,-2 -6,-3 2,0 3,-1 4,-2 2,-1 3,-2 4,-4 0,-2 1,-3 1,-6 0,-2 -1,-5 -2,-7 -2,-2 -4,-3 -6,-4 -3,-1 -6,-2 -10,-2l-26 0 0 53zm11 -10l0 -13 13 0c3,0 4,0 6,1 1,0 2,1 3,2 1,1 1,2 1,3 0,2 -1,4 -2,5 -2,1 -4,2 -7,2l-14 0zm0 -21l0 -13 13 0c2,1 3,1 4,1 1,1 2,2 3,2 0,1 1,2 1,3 0,2 -1,3 -1,4 -1,1 -2,1 -3,2 -1,1 -3,1 -4,1l-13 0zm91 31l0 -31c0,-5 -1,-9 -2,-12 -2,-4 -5,-6 -8,-8 -3,-2 -8,-2 -13,-3 -3,0 -5,1 -8,1 -2,0 -4,1 -6,2 -2,0 -4,1 -6,2l3 9c2,0 4,-1 5,-1 2,-1 3,-1 5,-1 2,-1 4,-1 5,-1 5,0 8,1 10,3 2,2 3,5 3,8l0 1c-1,0 -2,0 -4,-1 -1,0 -3,0 -4,-1 -2,0 -4,0 -6,0 -3,0 -6,1 -9,1 -2,1 -4,2 -6,3 -2,2 -4,4 -5,6 -1,2 -1,4 -1,7 0,3 0,5 1,7 1,2 2,4 4,5 2,2 4,3 6,4 2,0 5,1 7,1 3,0 5,-1 7,-1 3,-1 4,-2 6,-3 2,-1 3,-2 4,-4l0 7 12 0zm-11 -19c0,2 -1,4 -2,5 -1,2 -3,3 -5,4 -2,1 -5,2 -7,2 -2,0 -4,-1 -5,-1 -2,-1 -3,-2 -4,-3 -1,-1 -1,-2 -1,-4 0,-2 0,-3 1,-5 1,-1 2,-2 4,-2 2,-1 4,-1 7,-1 2,0 4,0 6,0 2,1 4,1 6,2l0 3zm50 -40c2,0 5,0 7,-1 2,-2 4,-3 5,-5 2,-2 3,-5 3,-8l-7 -1c-1,2 -2,4 -3,5 -1,1 -3,2 -5,2 -3,0 -4,-1 -6,-2 -1,-1 -2,-3 -3,-5l-7 1c0,3 1,6 3,8 1,2 3,3 5,5 2,1 5,1 8,1zm-24 59l11 0 25 -35 0 35 11 0 0 -53 -11 0c-4,6 -8,12 -12,18 -4,6 -9,11 -13,17l0 -35 -11 0 0 53zm57 12l10 0 1 -12 37 0 0 12 10 0 1 -23 -7 0 0 -42 -41 0 0 7c0,5 0,9 0,14 -1,4 -1,8 -2,11 -1,4 -2,7 -4,10l-5 0 0 23zm18 -23c1,-2 1,-4 2,-7 1,-3 1,-5 2,-8 0,-3 0,-6 0,-9l0 -7 18 0 0 31 -22 0zm75 12c4,0 6,-1 9,-1 3,-1 5,-2 7,-4 2,-1 4,-3 6,-5l-7 -6c-2,1 -3,2 -5,3 -1,1 -3,2 -4,2 -2,1 -4,1 -6,1 -2,0 -4,-1 -7,-2 -2,-1 -3,-2 -5,-4 -1,-2 -2,-4 -3,-7l39 0c0,-1 0,-1 0,-1 0,-1 0,-1 0,-2 0,0 0,0 0,-1 0,-3 0,-6 -1,-8 -1,-3 -2,-6 -3,-8 -1,-2 -3,-4 -5,-6 -2,-2 -4,-3 -7,-4 -3,-1 -6,-2 -9,-2 -4,0 -7,1 -10,2 -3,2 -6,4 -8,6 -3,3 -5,6 -6,9 -1,3 -2,7 -2,10 0,5 1,8 2,12 2,3 4,6 6,8 3,3 5,4 9,6 3,1 6,2 10,2zm-15 -31c1,-3 1,-5 3,-7 1,-2 2,-4 4,-5 2,-1 4,-2 7,-2 3,0 5,1 7,2 2,1 3,3 4,5 1,2 2,4 2,7l-27 0zm51 45l12 0 0 -24c2,2 3,4 5,5 1,1 3,2 5,3 3,1 5,2 8,2 3,0 5,-1 7,-2 3,0 5,-1 7,-3 2,-1 4,-3 6,-5 1,-3 2,-5 3,-8 1,-3 2,-6 2,-9 0,-4 -1,-7 -2,-10 -1,-3 -2,-5 -3,-8 -2,-2 -4,-4 -6,-5 -2,-2 -4,-3 -7,-4 -2,0 -4,-1 -7,-1 -3,0 -5,1 -7,2 -3,0 -5,2 -6,3 -2,2 -3,3 -5,5l0 -9 -12 0 0 68zm27 -25c-2,0 -4,0 -6,-1 -1,-1 -3,-2 -4,-3 -2,-2 -3,-4 -4,-6 -1,-2 -1,-4 -1,-6 0,-3 0,-5 1,-7 1,-3 2,-4 4,-6 1,-1 3,-2 4,-3 2,-1 4,-1 6,-1 2,0 4,0 6,1 2,1 4,2 5,3 1,2 2,3 3,5 1,3 1,5 1,7 0,3 0,5 -1,7 -1,2 -2,4 -3,6 -1,1 -3,2 -5,3 -2,1 -4,1 -6,1z"/>
 </g>
</svg>
