<svg id="Layer_1" data-name="Layer 1" xmlns="http://www.w3.org/2000/svg" viewBox="0 0 349.67 71.6"><defs><style>.cls-1{fill:#1b1464;}.cls-2{fill:#d0d9e0;}</style></defs><title>ip-link-logo-my</title><path class="cls-1" d="M57.26,150.15a6.43,6.43,0,0,1-1.75-4.7V86.75a6,6,0,0,1,6.4-6.4,6.45,6.45,0,0,1,4.75,1.75,6.32,6.32,0,0,1,1.75,4.65v58.7a6.47,6.47,0,0,1-1.75,4.7,6.32,6.32,0,0,1-4.75,1.8A6.17,6.17,0,0,1,57.26,150.15Z" transform="translate(-42.03 -80.35)"/><path class="cls-1" d="M85.35,150.2a6.43,6.43,0,0,1-1.75-4.75V87a6,6,0,0,1,1.65-4.5,6.29,6.29,0,0,1,4.55-1.6h24.6q11.31,0,17.6,5.65t6.3,15.85q0,10.2-6.3,15.9T114.4,124H96.5v21.5A6,6,0,0,1,90,152,6.28,6.28,0,0,1,85.35,150.2Zm40.75-47.75q0-11.6-13.3-11.6H96.5v23.2h16.3Q126.11,114.05,126.1,102.45Z" transform="translate(-42.03 -80.35)"/><path class="cls-1" d="M178.3,149.75a6,6,0,0,1-1.6-4.4V86.75a6,6,0,0,1,6.4-6.4,6.43,6.43,0,0,1,4.75,1.75,6.28,6.28,0,0,1,1.75,4.65v54h28.1q6,0,6,5.3c0,3.54-2,5.3-6,5.3H182.8A6.08,6.08,0,0,1,178.3,149.75Z" transform="translate(-42.03 -80.35)"/><path class="cls-1" d="M234,150.15a6.47,6.47,0,0,1-1.75-4.7V86.75a6,6,0,0,1,6.4-6.4,6.43,6.43,0,0,1,4.75,1.75,6.28,6.28,0,0,1,1.75,4.65v58.7a6.43,6.43,0,0,1-1.75,4.7,6.31,6.31,0,0,1-4.75,1.8A6.2,6.2,0,0,1,234,150.15Z" transform="translate(-42.03 -80.35)"/><path class="cls-1" d="M318.15,82.1a6.51,6.51,0,0,1,1.65,4.65v58.7a6.57,6.57,0,0,1-1.7,4.7,5.77,5.77,0,0,1-4.4,1.8,5.7,5.7,0,0,1-4.9-2.3l-36.5-47.5v43.3a6.78,6.78,0,0,1-1.6,4.7,6.28,6.28,0,0,1-8.8,0,6.78,6.78,0,0,1-1.6-4.7V86.75A6.41,6.41,0,0,1,262,82.1a6,6,0,0,1,4.5-1.75,5.62,5.62,0,0,1,4.8,2.3L307.7,130V86.75a6.51,6.51,0,0,1,1.65-4.65,5.72,5.72,0,0,1,4.35-1.75A5.84,5.84,0,0,1,318.15,82.1Z" transform="translate(-42.03 -80.35)"/><path class="cls-1" d="M391.7,146A5.53,5.53,0,0,1,390,150a5.66,5.66,0,0,1-4.15,1.75,6.4,6.4,0,0,1-4.6-2.1l-33.3-31.2v27a6.43,6.43,0,0,1-1.75,4.7,6.32,6.32,0,0,1-4.75,1.8,6.2,6.2,0,0,1-4.65-1.8,6.43,6.43,0,0,1-1.75-4.7V86.75a6,6,0,0,1,6.4-6.4,6.45,6.45,0,0,1,4.75,1.75,6.28,6.28,0,0,1,1.75,4.65v25.7l32.2-30.2a5.65,5.65,0,0,1,4.1-1.8,6,6,0,0,1,5.8,5.8,5.69,5.69,0,0,1-2,4.2l-26.9,24.6,28.6,26.6A5.82,5.82,0,0,1,391.7,146Z" transform="translate(-42.03 -80.35)"/><text x="-42.03" y="-80.35"/><circle class="cls-2" cx="111.38" cy="42.12" r="11.23"/></svg>